<svg width="116" height="40" viewBox="0 0 116 40" fill="none" xmlns="http://www.w3.org/2000/svg">
<circle cx="20" cy="20" r="5" fill="black"/>
<circle cx="20" cy="20" r="10.9375" stroke="black" stroke-width="1.875"/>
<circle cx="32.5" cy="7.46094" r="2.46094" fill="#B28A32"/>
<path d="M45.375 26.0469C45.1042 26.0469 44.9115 25.9635 44.7969 25.7969C44.6927 25.6198 44.6406 25.4062 44.6406 25.1562V15.25C44.6406 14.9062 44.7604 14.6146 45 14.375C45.2396 14.1354 45.5312 14.0156 45.875 14.0156H47.6406C47.9948 14.0156 48.401 14.0417 48.8594 14.0938C49.3281 14.1354 49.7188 14.2448 50.0312 14.4219C50.5625 14.724 50.9427 15.1198 51.1719 15.6094C51.4115 16.099 51.5312 16.6458 51.5312 17.25C51.5312 18.375 51.2344 19.2292 50.6406 19.8125C50.0469 20.3958 49.1875 20.6927 48.0625 20.7031H46.1094V25.1562C46.1094 25.4062 46.0521 25.6198 45.9375 25.7969C45.8333 25.9635 45.6458 26.0469 45.375 26.0469ZM46.1094 19.375H47.5625C48.3438 19.375 48.9479 19.2344 49.375 18.9531C49.8021 18.6615 50.0156 18.0885 50.0156 17.2344C50.0156 16.4948 49.8125 15.9948 49.4062 15.7344C49.0104 15.474 48.4688 15.3438 47.7812 15.3438H46.7344C46.3177 15.3438 46.1094 15.5521 46.1094 15.9688V19.375ZM56 26.0469C55.1146 26.0469 54.4219 25.8542 53.9219 25.4688C53.4323 25.0729 53.0833 24.5521 52.875 23.9062C52.6771 23.2604 52.5781 22.5469 52.5781 21.7656C52.5781 20.9635 52.6823 20.2396 52.8906 19.5938C53.099 18.9479 53.4583 18.4323 53.9688 18.0469C54.4792 17.6615 55.1771 17.4688 56.0625 17.4688C56.6875 17.4688 57.2135 17.5885 57.6406 17.8281C58.0677 18.0677 58.4115 18.3958 58.6719 18.8125C58.9427 19.2188 59.1354 19.6771 59.25 20.1875C59.3646 20.6979 59.4219 21.2292 59.4219 21.7812C59.4219 22.5625 59.3177 23.276 59.1094 23.9219C58.9115 24.5677 58.5625 25.0833 58.0625 25.4688C57.5729 25.8542 56.8854 26.0469 56 26.0469ZM56 24.7656C56.4167 24.7656 56.75 24.6771 57 24.5C57.2604 24.3125 57.4583 24.0729 57.5938 23.7812C57.7292 23.4896 57.8229 23.1719 57.875 22.8281C57.9271 22.474 57.9531 22.1302 57.9531 21.7969C57.9531 21.4635 57.9271 21.1198 57.875 20.7656C57.8333 20.401 57.7396 20.0677 57.5938 19.7656C57.4583 19.4635 57.2604 19.2188 57 19.0312C56.75 18.8438 56.4115 18.75 55.9844 18.75C55.5573 18.75 55.2135 18.8542 54.9531 19.0625C54.6927 19.2708 54.4948 19.5417 54.3594 19.875C54.2344 20.2083 54.1458 20.5625 54.0938 20.9375C54.0521 21.3125 54.0312 21.6667 54.0312 22C54.0312 22.4479 54.0833 22.8854 54.1875 23.3125C54.2917 23.7292 54.4844 24.0781 54.7656 24.3594C55.0469 24.6302 55.4583 24.7656 56 24.7656ZM64.1719 26.0625C63.3385 26.0625 62.6615 25.8594 62.1406 25.4531C61.6198 25.0469 61.2396 24.5156 61 23.8594C60.7604 23.2031 60.6406 22.5052 60.6406 21.7656C60.6406 21.224 60.6979 20.6979 60.8125 20.1875C60.9375 19.6771 61.1302 19.2188 61.3906 18.8125C61.6615 18.3958 62.0104 18.0677 62.4375 17.8281C62.875 17.5885 63.401 17.4688 64.0156 17.4688C64.7552 17.4688 65.3698 17.625 65.8594 17.9375C66.3594 18.25 66.7344 18.6823 66.9844 19.2344C67.2344 19.776 67.3594 20.401 67.3594 21.1094C67.3594 21.7656 67.0208 22.0938 66.3438 22.0938H62.0938C62.0938 22.5625 62.1458 23.0104 62.25 23.4375C62.3542 23.8542 62.5521 24.1979 62.8438 24.4688C63.1458 24.7292 63.5729 24.8594 64.125 24.8594C64.5417 24.8594 64.8594 24.7969 65.0781 24.6719C65.3073 24.5365 65.474 24.375 65.5781 24.1875C65.6927 24 65.7865 23.8125 65.8594 23.625C65.9427 23.4375 66.0365 23.2812 66.1406 23.1562C66.2552 23.0208 66.4271 22.9531 66.6562 22.9531C66.8646 22.9531 67.0312 23.0052 67.1562 23.1094C67.2812 23.2135 67.3438 23.375 67.3438 23.5938C67.3438 23.9167 67.2552 24.2188 67.0781 24.5C66.9115 24.7708 66.7135 25.0156 66.4844 25.2344C66.1719 25.526 65.8125 25.7396 65.4062 25.875C65.0104 26 64.599 26.0625 64.1719 26.0625ZM62.1406 20.8594H65.6875C65.8125 20.8594 65.875 20.8021 65.875 20.6875C65.875 20.125 65.7135 19.651 65.3906 19.2656C65.0677 18.8698 64.6146 18.6719 64.0312 18.6719C63.5938 18.6719 63.2396 18.776 62.9688 18.9844C62.7083 19.1823 62.5156 19.4479 62.3906 19.7812C62.2656 20.1146 62.1823 20.474 62.1406 20.8594ZM72.9688 25.8281C72.4271 25.8281 72.0156 25.7604 71.7344 25.625C71.4635 25.4896 71.2812 25.2708 71.1875 24.9688C71.0938 24.6667 71.0469 24.2604 71.0469 23.75V18.9531H69.9062C69.6979 18.9531 69.5156 18.9115 69.3594 18.8281C69.2031 18.7344 69.125 18.5677 69.125 18.3281C69.125 18.0885 69.2031 17.9271 69.3594 17.8438C69.5156 17.75 69.6979 17.7031 69.9062 17.7031H71.0469V15.5938C71.0469 15.3438 71.099 15.1406 71.2031 14.9844C71.3073 14.8177 71.4948 14.7344 71.7656 14.7344C72.0365 14.7344 72.2188 14.8177 72.3125 14.9844C72.4167 15.151 72.4688 15.3542 72.4688 15.5938V17.7031H73.8281C74.0365 17.7031 74.2188 17.75 74.375 17.8438C74.5312 17.9271 74.6094 18.0885 74.6094 18.3281C74.6094 18.5677 74.5312 18.7344 74.375 18.8281C74.2188 18.9115 74.0365 18.9531 73.8281 18.9531H72.4688V23.5469C72.4688 23.8698 72.5 24.1042 72.5625 24.25C72.6354 24.3958 72.7552 24.4844 72.9219 24.5156C73.0885 24.5469 73.3125 24.5625 73.5938 24.5625C73.8333 24.5625 74.0469 24.5938 74.2344 24.6562C74.4219 24.7083 74.5156 24.8854 74.5156 25.1875C74.5156 25.4167 74.4479 25.5833 74.3125 25.6875C74.1875 25.7812 74.0208 25.8281 73.8125 25.8281H72.9688ZM78.6406 26.0469C78.3802 26.0469 78.1979 25.9635 78.0938 25.7969C77.9896 25.6302 77.9375 25.4271 77.9375 25.1875V18.3281C77.9375 18.0781 77.9896 17.875 78.0938 17.7188C78.1979 17.5521 78.3854 17.4688 78.6562 17.4688C78.9375 17.4688 79.125 17.5469 79.2188 17.7031C79.3125 17.8594 79.3594 18.0469 79.3594 18.2656C79.3594 18.474 79.3594 18.6771 79.3594 18.875C79.6615 18.4896 80.0052 18.1615 80.3906 17.8906C80.7865 17.6094 81.2396 17.4688 81.75 17.4688C81.9792 17.4688 82.1562 17.5208 82.2812 17.625C82.4167 17.7292 82.4844 17.901 82.4844 18.1406C82.4844 18.4219 82.3802 18.6146 82.1719 18.7188C81.974 18.8229 81.7552 18.8906 81.5156 18.9219C81.2031 18.9635 80.8802 19.0677 80.5469 19.2344C80.2135 19.401 79.9323 19.6198 79.7031 19.8906C79.474 20.151 79.3594 20.4635 79.3594 20.8281V25.1875C79.3594 25.4375 79.3073 25.6458 79.2031 25.8125C79.099 25.9688 78.9115 26.0469 78.6406 26.0469ZM86.8281 27.9219C86.6302 27.9219 86.4635 27.875 86.3281 27.7812C86.1927 27.6979 86.125 27.5417 86.125 27.3125C86.125 27.2396 86.1771 27.0677 86.2812 26.7969C86.3958 26.526 86.526 26.224 86.6719 25.8906C86.8177 25.5573 86.9583 25.25 87.0938 24.9688C87.2292 24.6771 87.3177 24.4792 87.3594 24.375L84.6406 18.5625C84.6094 18.4896 84.5781 18.4167 84.5469 18.3438C84.526 18.2604 84.5156 18.1823 84.5156 18.1094C84.5156 17.8802 84.5781 17.7188 84.7031 17.625C84.8385 17.5208 85.0104 17.4688 85.2188 17.4688C85.3958 17.4688 85.5365 17.5208 85.6406 17.625C85.7552 17.7292 85.849 17.8542 85.9219 18L88.0938 22.6875L90.1562 18.0156C90.2188 17.8698 90.3073 17.7448 90.4219 17.6406C90.5469 17.526 90.6927 17.4688 90.8594 17.4688C91.3281 17.4688 91.5625 17.6875 91.5625 18.125C91.5625 18.2083 91.5469 18.2917 91.5156 18.375C91.4844 18.4583 91.4531 18.5417 91.4219 18.625L87.5781 27.3438C87.5052 27.5104 87.4062 27.6458 87.2812 27.75C87.1667 27.8646 87.0156 27.9219 86.8281 27.9219ZM96.2344 26.0469C95.5885 26.0469 95.0417 25.9219 94.5938 25.6719C94.1562 25.4115 93.7969 25.0677 93.5156 24.6406C93.2448 24.2135 93.0365 23.7344 92.8906 23.2031C92.7552 22.6719 92.6615 22.1302 92.6094 21.5781C92.5573 21.0156 92.5312 20.4844 92.5312 19.9844C92.5312 19.474 92.5573 18.9375 92.6094 18.375C92.6615 17.8021 92.7604 17.2448 92.9062 16.7031C93.0521 16.1615 93.2604 15.6719 93.5312 15.2344C93.8125 14.7969 94.1771 14.4479 94.625 14.1875C95.0729 13.9271 95.6302 13.7969 96.2969 13.7969C96.849 13.7969 97.349 13.9427 97.7969 14.2344C98.2552 14.5156 98.6146 14.8906 98.875 15.3594C99.1458 15.8177 99.2812 16.3229 99.2812 16.875C99.2812 17.3333 99.0469 17.5625 98.5781 17.5625C98.3281 17.5625 98.1458 17.4844 98.0312 17.3281C97.9167 17.1615 97.8229 16.9635 97.75 16.7344C97.6875 16.4948 97.6094 16.2604 97.5156 16.0312C97.4219 15.8021 97.276 15.6094 97.0781 15.4531C96.8906 15.2865 96.6042 15.2031 96.2188 15.2031C95.8021 15.2031 95.4583 15.3229 95.1875 15.5625C94.9271 15.8021 94.7188 16.1146 94.5625 16.5C94.4062 16.8854 94.2917 17.3021 94.2188 17.75C94.1562 18.1875 94.1146 18.6146 94.0938 19.0312C94.0729 19.4375 94.0625 19.7812 94.0625 20.0625C94.0625 20.3438 94.0729 20.6823 94.0938 21.0781C94.1146 21.4635 94.1562 21.8646 94.2188 22.2812C94.2917 22.6875 94.4062 23.0729 94.5625 23.4375C94.7188 23.7917 94.9271 24.0833 95.1875 24.3125C95.4479 24.5312 95.7812 24.6406 96.1875 24.6406C96.5521 24.6406 96.8333 24.5521 97.0312 24.375C97.2396 24.1979 97.401 23.9792 97.5156 23.7188C97.6406 23.4479 97.75 23.1823 97.8438 22.9219C97.9375 22.6615 98.0469 22.4427 98.1719 22.2656C98.3073 22.0885 98.5 22 98.75 22C99.2292 22 99.4688 22.2344 99.4688 22.7031C99.4688 22.9948 99.401 23.3125 99.2656 23.6562C99.1406 23.9896 99.0052 24.2812 98.8594 24.5312C98.5781 25.0417 98.2135 25.4219 97.7656 25.6719C97.3281 25.9219 96.8177 26.0469 96.2344 26.0469ZM103.188 26.0469C102.458 26.0469 101.839 25.849 101.328 25.4531C100.828 25.0573 100.578 24.474 100.578 23.7031C100.578 23.1302 100.693 22.6615 100.922 22.2969C101.151 21.9219 101.458 21.6302 101.844 21.4219C102.229 21.2135 102.651 21.0625 103.109 20.9688C103.578 20.8646 104.052 20.8021 104.531 20.7812C105.021 20.75 105.474 20.7292 105.891 20.7188C105.891 20.2812 105.854 19.9167 105.781 19.625C105.708 19.3333 105.552 19.1146 105.312 18.9688C105.073 18.8125 104.703 18.7344 104.203 18.7344C103.786 18.7344 103.469 18.8073 103.25 18.9531C103.031 19.099 102.854 19.2708 102.719 19.4688C102.594 19.6562 102.458 19.8229 102.312 19.9688C102.177 20.1146 101.979 20.1875 101.719 20.1875C101.51 20.1875 101.333 20.1406 101.188 20.0469C101.052 19.9427 100.984 19.776 100.984 19.5469C100.984 19.3698 101.026 19.2031 101.109 19.0469C101.193 18.8802 101.286 18.7292 101.391 18.5938C101.724 18.1667 102.13 17.875 102.609 17.7188C103.089 17.5521 103.589 17.4688 104.109 17.4688C104.724 17.4688 105.266 17.5625 105.734 17.75C106.214 17.9271 106.589 18.2188 106.859 18.625C107.141 19.0208 107.281 19.5521 107.281 20.2188V25.3438C107.281 25.8125 107.047 26.0469 106.578 26.0469C106.307 26.0469 106.125 25.9792 106.031 25.8438C105.938 25.7083 105.891 25.5417 105.891 25.3438C105.891 25.1458 105.891 24.9479 105.891 24.75C105.536 25.1354 105.13 25.4479 104.672 25.6875C104.224 25.9271 103.729 26.0469 103.188 26.0469ZM103.281 24.8438C103.615 24.8438 103.932 24.7865 104.234 24.6719C104.547 24.5469 104.828 24.3802 105.078 24.1719C105.224 24.0469 105.396 23.875 105.594 23.6562C105.792 23.4271 105.891 23.2031 105.891 22.9844V21.7812C105.63 21.7917 105.333 21.8073 105 21.8281C104.667 21.8385 104.323 21.875 103.969 21.9375C103.625 21.9896 103.302 22.0833 103 22.2188C102.698 22.3438 102.453 22.526 102.266 22.7656C102.089 22.9948 102 23.2917 102 23.6562C102 24.0729 102.109 24.375 102.328 24.5625C102.557 24.75 102.875 24.8438 103.281 24.8438ZM109.219 26.0469C108.979 26.0469 108.807 25.974 108.703 25.8281C108.609 25.6719 108.562 25.4844 108.562 25.2656V18.1094C108.562 17.6823 108.786 17.4688 109.234 17.4688C109.474 17.4688 109.635 17.5156 109.719 17.6094C109.812 17.6927 109.865 17.8125 109.875 17.9688C109.885 18.1146 109.891 18.2812 109.891 18.4688C110.057 18.2188 110.255 17.9896 110.484 17.7812C110.724 17.5729 111.005 17.4688 111.328 17.4688C111.661 17.4688 111.922 17.5677 112.109 17.7656C112.297 17.9531 112.432 18.1979 112.516 18.5C112.682 18.2292 112.885 17.9896 113.125 17.7812C113.365 17.5729 113.651 17.4688 113.984 17.4688C114.391 17.4688 114.698 17.5833 114.906 17.8125C115.115 18.0312 115.255 18.3073 115.328 18.6406C115.401 18.9635 115.438 19.2917 115.438 19.625V25.2656C115.438 25.4948 115.385 25.6823 115.281 25.8281C115.188 25.974 115.016 26.0469 114.766 26.0469C114.526 26.0469 114.354 25.974 114.25 25.8281C114.156 25.6719 114.109 25.4844 114.109 25.2656V19.7188C114.109 19.6146 114.099 19.474 114.078 19.2969C114.068 19.1198 114.031 18.9583 113.969 18.8125C113.906 18.6667 113.797 18.5938 113.641 18.5938C113.464 18.5938 113.302 18.6771 113.156 18.8438C113.01 19 112.891 19.1875 112.797 19.4062C112.714 19.625 112.672 19.8125 112.672 19.9688V25.2656C112.672 25.4948 112.62 25.6823 112.516 25.8281C112.422 25.974 112.25 26.0469 112 26.0469C111.76 26.0469 111.589 25.974 111.484 25.8281C111.391 25.6719 111.344 25.4844 111.344 25.2656V19.8281C111.344 19.7344 111.339 19.5885 111.328 19.3906C111.318 19.1927 111.281 19.0104 111.219 18.8438C111.156 18.6771 111.052 18.5938 110.906 18.5938C110.75 18.5938 110.594 18.6823 110.438 18.8594C110.281 19.0365 110.151 19.2396 110.047 19.4688C109.943 19.6875 109.891 19.8698 109.891 20.0156V25.2656C109.891 25.4948 109.839 25.6823 109.734 25.8281C109.641 25.974 109.469 26.0469 109.219 26.0469Z" fill="black"/>
</svg>
